<svg width="544" height="132" viewBox="0 0 544 132" fill="none" xmlns="http://www.w3.org/2000/svg">
<path d="M18.2748 129.593H14.9802L9.57496 124.42H5.66261V129.593H3.44904V116.312H14.1565C15.1174 116.312 15.821 116.509 16.2671 116.904C16.7304 117.299 16.9621 117.959 16.9621 118.886V121.846C16.9621 123.167 16.4473 123.974 15.4177 124.265C15.0917 124.368 14.0192 124.42 12.2003 124.42L18.2748 129.593ZM14.7228 121.331V119.401C14.7228 118.886 14.6112 118.534 14.3882 118.345C14.1823 118.139 13.8133 118.037 13.2814 118.037H5.66261V122.695H13.2814C13.8133 122.695 14.1823 122.601 14.3882 122.412C14.6112 122.223 14.7228 121.863 14.7228 121.331ZM35.9503 129.593H23.055V116.312H35.8474V118.088H25.2686V121.794H31.7291V123.545H25.2686V127.766H35.9503V129.593ZM56.3886 122.875C56.3886 125.467 55.4706 127.363 53.6345 128.564C52.5878 129.25 50.889 129.593 48.5382 129.593H41.2283V116.312H48.5382C50.8719 116.312 52.5706 116.655 53.6345 117.342C54.5268 117.925 55.2132 118.731 55.6936 119.761C56.157 120.705 56.3886 121.743 56.3886 122.875ZM54.1236 122.875C54.1236 121.039 53.5745 119.752 52.4763 119.015C51.584 118.414 50.1683 118.114 48.2293 118.114H43.4418V127.74H48.2293C50.2198 127.74 51.6526 127.431 52.5277 126.814C53.5916 126.076 54.1236 124.763 54.1236 122.875ZM74.9109 129.593H62.0156V116.312H74.808V118.088H64.2292V121.794H70.6897V123.545H64.2292V127.766H74.9109V129.593ZM92.8268 118.114H82.4024V122.464H88.3482V124.24H82.4024V129.593H80.1889V116.312H92.8268V118.114ZM98.791 129.593H96.5774V116.312H98.791V129.593ZM120.348 129.593H119.112L108.894 120.353C108.568 120.061 108.122 119.564 107.556 118.86C107.659 119.649 107.71 120.559 107.71 121.589V129.593H105.677V116.312H107.067L117.002 125.192C117.482 125.621 117.989 126.179 118.52 126.865C118.383 126.041 118.315 125.055 118.315 123.905V116.312H120.348V129.593ZM129.457 129.593H127.243V116.312H129.457V129.593ZM151.014 129.593H149.778L139.56 120.353C139.234 120.061 138.788 119.564 138.221 118.86C138.324 119.649 138.376 120.559 138.376 121.589V129.593H136.342V116.312H137.732L147.668 125.192C148.148 125.621 148.654 126.179 149.186 126.865C149.049 126.041 148.98 125.055 148.98 123.905V116.312H151.014V129.593ZM172.555 126.453C172.555 127.672 172.331 128.504 171.885 128.95C171.456 129.379 170.641 129.593 169.44 129.593H160.843C159.642 129.593 158.818 129.379 158.372 128.95C157.943 128.504 157.729 127.672 157.729 126.453V119.452C157.729 118.234 157.943 117.41 158.372 116.981C158.818 116.535 159.642 116.312 160.843 116.312H169.44C170.71 116.312 171.542 116.544 171.937 117.007C172.349 117.47 172.555 118.345 172.555 119.632L170.341 120.07V118.114H159.942V127.74H170.341V123.854H164.961V122.155H172.555V126.453ZM199.823 118.114H193.723V129.593H191.509V118.114H185.435V116.312H199.823V118.114ZM218.459 129.593H216.245V123.57H205.769V129.593H203.556V116.312H205.769V121.743H216.245V116.312H218.459V129.593ZM238.244 129.593H225.349V116.312H238.141V118.088H227.562V121.794H234.023V123.545H227.562V127.766H238.244V129.593ZM394.945 126.453C394.945 127.672 394.73 128.504 394.301 128.95C393.872 129.379 393.057 129.593 391.856 129.593H382.667C381.466 129.593 380.642 129.379 380.196 128.95C379.767 128.504 379.553 127.672 379.553 126.453V119.452C379.553 118.234 379.767 117.41 380.196 116.981C380.642 116.535 381.466 116.312 382.667 116.312H391.856C393.057 116.312 393.872 116.535 394.301 116.981C394.73 117.41 394.945 118.234 394.945 119.452V126.453ZM392.757 127.74V118.114H381.766V127.74H392.757ZM414.315 118.114H403.89V122.464H409.836V124.24H403.89V129.593H401.677V116.312H414.315V118.114ZM442.338 126.453C442.338 127.672 442.115 128.504 441.669 128.95C441.24 129.379 440.425 129.593 439.223 129.593H430.626C429.425 129.593 428.602 129.379 428.156 128.95C427.727 128.504 427.512 127.672 427.512 126.453V119.452C427.512 118.234 427.727 117.41 428.156 116.981C428.602 116.535 429.425 116.312 430.626 116.312H439.223C440.493 116.312 441.325 116.544 441.72 117.007C442.132 117.47 442.338 118.345 442.338 119.632L440.124 120.07V118.114H429.726V127.74H440.124V123.854H434.745V122.155H442.338V126.453ZM463.145 129.593H460.7L459.001 126.325H450.018L448.319 129.593H446.131L453.39 116.312H455.758L463.145 129.593ZM458.1 124.626L454.522 117.831L450.945 124.626H458.1ZM483.751 129.593H481.717V120.636C481.717 120.636 481.752 119.984 481.82 118.68C481.529 119.298 481.263 119.778 481.022 120.121L475.952 127.509H475.385L470.109 120.327C469.697 119.761 469.397 119.212 469.208 118.68C469.277 119.195 469.311 119.744 469.311 120.327V129.593H467.432V116.312H469.234L475.694 124.96L481.717 116.312H483.751V129.593ZM492.896 129.593H490.683V116.312H492.896V129.593ZM514.453 129.593H513.218L502.999 120.353C502.673 120.061 502.227 119.564 501.661 118.86C501.764 119.649 501.815 120.559 501.815 121.589V129.593H499.782V116.312H501.172L511.107 125.192C511.588 125.621 512.094 126.179 512.626 126.865C512.488 126.041 512.42 125.055 512.42 123.905V116.312H514.453V129.593ZM535.994 126.453C535.994 127.672 535.771 128.504 535.325 128.95C534.896 129.379 534.081 129.593 532.88 129.593H524.283C523.082 129.593 522.258 129.379 521.812 128.95C521.383 128.504 521.168 127.672 521.168 126.453V119.452C521.168 118.234 521.383 117.41 521.812 116.981C522.258 116.535 523.082 116.312 524.283 116.312H532.88C534.149 116.312 534.982 116.544 535.376 117.007C535.788 117.47 535.994 118.345 535.994 119.632L533.781 120.07V118.114H523.382V127.74H533.781V123.854H528.401V122.155H535.994V126.453Z" fill="#FFE500"/>
<path d="M266.533 118.629H256.186V122.129H261.771V124.549H256.186V129.593H253.097V116.312H266.533V118.629ZM285.346 126.453C285.346 127.689 285.106 128.521 284.625 128.95C284.162 129.379 283.304 129.593 282.051 129.593H273.66C272.408 129.593 271.541 129.379 271.061 128.95C270.597 128.521 270.366 127.689 270.366 126.453V116.312H273.454V127.097H282.257V116.312H285.346V126.453ZM304.437 118.68H298.311V129.593H295.222V118.68H289.122V116.312H304.437V118.68ZM323.2 126.453C323.2 127.689 322.96 128.521 322.48 128.95C322.016 129.379 321.158 129.593 319.906 129.593H311.515C310.262 129.593 309.396 129.379 308.915 128.95C308.452 128.521 308.22 127.689 308.22 126.453V116.312H311.309V127.097H320.112V116.312H323.2V126.453ZM345.74 129.593H341.313L335.959 124.574H333.025V129.593H329.988V116.312H341.365C343.355 116.312 344.35 117.17 344.35 118.886V122C344.35 123.287 343.836 124.085 342.806 124.394C342.411 124.514 341.347 124.574 339.614 124.574L345.74 129.593ZM341.365 121.254V119.658C341.365 119.212 341.236 118.92 340.979 118.783C340.79 118.663 340.455 118.603 339.975 118.603H333.025V122.309H339.975C340.455 122.309 340.79 122.249 340.979 122.129C341.236 121.992 341.365 121.7 341.365 121.254ZM364.343 129.593H350.624V116.312H364.215V118.577H353.713V121.537H359.839V123.802H353.713V127.097H364.343V129.593Z" fill="white"/>
<path d="M3.77986 44.2035V0.105138L42.9644 33.5569L82.4009 0.105138V44.2035H75.2192V15.4766L43.0274 42.8175L10.9616 15.4766V44.2035H3.77986ZM89.971 0.105138L221.258 0.168135V7.03488H185.538V44.2035H178.357V7.03488H89.971V0.105138ZM89.971 44.2035V37.2738H157.756V44.2035H89.971ZM89.971 25.6192V18.8154H153.977V25.6192H89.971ZM194.914 44.2665L235.232 0.168135C239.705 4.89296 265.723 33.4309 275.551 44.2665H265.975C265.66 43.9515 242.414 18.5635 236.555 12.1377L235.232 10.6887L210.852 37.3997H249.974L256.273 44.2665H194.914Z" fill="white"/>
<path d="M276.559 0.346112H287.138C287.486 0.694098 313.098 28.7419 319.64 35.9104L321.102 37.5111C324.512 33.8225 339.475 17.3975 348.036 8.00183H304.816L297.856 0.415708V0.346112H365.644L321.102 49.0643C316.23 43.7749 287.417 12.3169 276.559 0.346112ZM261.944 11.0641C258.603 7.37545 255.402 3.89558 252.339 0.485305H262.849C269.043 7.23625 274.889 13.7088 280.526 19.903C290.131 30.4818 301.197 42.5221 307.182 49.2035H296.673C295.49 47.8115 278.23 29.1594 261.944 11.0641Z" fill="#FAE132"/>
<path d="M341.301 49.2731L385.844 0.554901C390.785 5.77471 419.529 37.3023 430.386 49.2731H419.807C419.459 48.9251 393.778 20.8773 387.305 13.7784L385.844 12.1777L358.91 41.687H402.13L409.089 49.2731H341.301Z" fill="#FAE132"/>
<path d="M440.23 8.21062V0.554901H512.194C525.974 0.554901 531.89 16.7015 522.355 24.8444C519.571 27.3499 516.37 28.6027 512.194 28.6723H511.915L529.663 49.2731H520.267L501.754 28.7419H448.234V49.2731H440.3V21.1557H513.099C516.439 20.6686 519.223 18.0239 519.223 14.6832C519.223 11.3425 516.439 8.5586 513.099 8.21062H440.23Z" fill="#FAE132"/>
<path d="M38.0886 91.064C38.0886 93.8207 37.6032 95.7038 36.6326 96.7133C35.6619 97.6839 33.8177 98.1693 31.0998 98.1693H13.5698C10.619 98.1693 8.67767 97.5674 7.74584 96.3638C6.93049 95.3543 6.52281 93.316 6.52281 90.2487L11.182 89.1421V93.976H33.5459V84.9489H14.6763C11.3373 84.9489 9.24065 84.0947 8.38647 82.3864C7.92056 81.4545 7.6876 79.0667 7.6876 75.2229C7.6876 72.4663 8.17293 70.6026 9.14358 69.6319C10.1142 68.6225 11.9585 68.1177 14.6763 68.1177H30.6922C33.4488 68.1177 35.3125 68.6225 36.2831 69.6319C37.2538 70.6414 37.7391 72.5439 37.7391 75.3394L33.4294 76.5624V72.1945H12.172V80.581H31.0998C33.8177 80.581 35.6619 81.0857 36.6326 82.0952C37.6032 83.1047 38.0886 84.9683 38.0886 87.6862V91.064ZM85.1606 91.064C85.1606 93.8207 84.6752 95.7038 83.7046 96.7133C82.7339 97.6839 80.8897 98.1693 78.1718 98.1693H60.3506C57.6327 98.1693 55.7691 97.6839 54.7596 96.7133C53.7889 95.7038 53.3036 93.8207 53.3036 91.064V68.1177H58.3122V93.976H80.2102V68.1177H85.1606V91.064ZM131.426 80.6392C131.426 82.7358 130.902 84.2306 129.854 85.1236C128.844 86.0166 127.252 86.4631 125.078 86.4631H105.859V98.1693H100.851V68.1177H125.078C127.252 68.1177 128.844 68.5642 129.854 69.4572C130.902 70.3502 131.426 71.845 131.426 73.9417V80.6392ZM126.359 79.3579V75.1647C126.359 73.9611 126.107 73.1457 125.602 72.7186C125.136 72.2527 124.302 72.0198 123.098 72.0198H105.859V82.5029H123.098C124.302 82.5029 125.136 82.2893 125.602 81.8622C126.107 81.3963 126.359 80.5615 126.359 79.3579ZM172.912 98.1693H143.734V68.1177H172.679V72.1362H148.742V80.5227H163.361V84.483H148.742V94.0343H172.912V98.1693ZM218.4 98.1693H210.945L198.715 86.4631H189.863V98.1693H184.854V68.1177H209.082C211.256 68.1177 212.848 68.5642 213.857 69.4572C214.906 70.3502 215.43 71.845 215.43 73.9417V80.6392C215.43 83.6288 214.265 85.4536 211.935 86.1137C211.198 86.3467 208.771 86.4631 204.655 86.4631L218.4 98.1693ZM210.363 79.4744V75.1064C210.363 73.9417 210.111 73.1457 209.606 72.7186C209.14 72.2527 208.305 72.0198 207.102 72.0198H189.863V82.5611H207.102C208.305 82.5611 209.14 82.3475 209.606 81.9205C210.111 81.4934 210.363 80.678 210.363 79.4744ZM259.675 91.064C259.675 93.8207 259.19 95.7038 258.219 96.7133C257.288 97.6839 255.443 98.1693 252.687 98.1693H235.855C233.138 98.1693 231.274 97.6839 230.264 96.7133C229.294 95.7038 228.808 93.8207 228.808 91.064V75.2229C228.808 72.4663 229.294 70.6026 230.264 69.6319C231.274 68.6225 233.138 68.1177 235.855 68.1177H252.687C256.103 68.1177 258.219 68.9913 259.035 70.7385C259.462 71.6703 259.675 74.1164 259.675 78.0767L254.667 79.0085V72.1945H233.817V93.976H254.667V86.4631L259.675 87.5114V91.064ZM306.616 98.1693H301.608V84.5412H277.904V98.1693H272.896V68.1177H277.904V80.4062H301.608V68.1177H306.616V98.1693ZM354.82 98.1693H349.287L345.443 90.7728H325.118L321.274 98.1693H316.324L332.747 68.1177H338.105L354.82 98.1693ZM343.405 86.929L335.31 71.5538L327.214 86.929H343.405ZM398.066 98.1693H390.612L378.381 86.4631H369.529V98.1693H364.52V68.1177H388.748C390.922 68.1177 392.514 68.5642 393.524 69.4572C394.572 70.3502 395.096 71.845 395.096 73.9417V80.6392C395.096 83.6288 393.931 85.4536 391.602 86.1137C390.864 86.3467 388.437 86.4631 384.322 86.4631L398.066 98.1693ZM390.029 79.4744V75.1064C390.029 73.9417 389.777 73.1457 389.272 72.7186C388.806 72.2527 387.971 72.0198 386.768 72.0198H369.529V82.5611H386.768C387.971 82.5611 388.806 82.3475 389.272 81.9205C389.777 81.4934 390.029 80.678 390.029 79.4744ZM442.021 91.064C442.021 93.8207 441.516 95.7038 440.506 96.7133C439.536 97.6839 437.691 98.1693 434.974 98.1693H415.522C412.804 98.1693 410.94 97.6839 409.931 96.7133C408.96 95.7038 408.475 93.8207 408.475 91.064V75.2229C408.475 72.4663 408.96 70.6026 409.931 69.6319C410.94 68.6225 412.804 68.1177 415.522 68.1177H434.974C437.847 68.1177 439.73 68.6419 440.623 69.6902C441.555 70.7385 442.021 72.7186 442.021 75.6306L437.012 76.6207V72.1945H413.483V93.976H437.012V85.1819H424.84V81.3381H442.021V91.064ZM485.664 98.1693H456.486V68.1177H485.431V72.1362H461.495V80.5227H476.113V84.483H461.495V94.0343H485.664V98.1693ZM531.909 82.9688C531.909 88.8315 529.832 93.1218 525.678 95.8397C523.309 97.3927 519.466 98.1693 514.146 98.1693H497.606V68.1177H514.146C519.427 68.1177 523.271 68.8942 525.678 70.4473C527.697 71.7674 529.25 73.5922 530.337 75.9218C531.385 78.0572 531.909 80.4062 531.909 82.9688ZM526.784 82.9688C526.784 78.8144 525.542 75.9024 523.057 74.2329C521.038 72.8739 517.835 72.1945 513.448 72.1945H502.615V93.976H513.448C517.951 93.976 521.193 93.2771 523.174 91.8794C525.581 90.2099 526.784 87.2397 526.784 82.9688Z" fill="white"/>
</svg>
