<svg width="159" height="17" viewBox="0 0 159 17" fill="none" xmlns="http://www.w3.org/2000/svg">
<path d="M0.32987 16V0.484847L14.1162 12.2542L27.9912 0.484847V16H25.4644V5.89299L14.1384 15.5124L2.85662 5.89299V16H0.32987ZM31.0978 2.92294V0.484847L77.2887 0.507011V2.92294H64.7214V16H62.1946V2.92294H31.0978ZM31.0978 13.5619H54.9468V16H31.0978V13.5619ZM31.0978 7.0677H53.617V9.46147H31.0978V7.0677ZM82.1939 0.507011C82.4599 0.787762 82.9106 1.27538 83.546 1.96987C84.1961 2.66436 84.9497 3.48444 85.8068 4.43013C86.6638 5.36104 87.5873 6.37322 88.5773 7.46667C89.5673 8.54534 90.5426 9.61662 91.503 10.6805C92.4783 11.7296 93.387 12.727 94.2293 13.6727C95.0863 14.6036 95.803 15.3868 96.3792 16.0222H93.0102C92.9954 16.0074 92.8255 15.8301 92.5004 15.4902C92.1901 15.1356 91.7764 14.6849 91.2592 14.1382C90.7568 13.5767 90.1806 12.9487 89.5304 12.2542C88.895 11.5449 88.2375 10.8209 87.5578 10.0821C86.8928 9.34326 86.2353 8.62661 85.5851 7.93212C84.9497 7.22286 84.3808 6.59486 83.8784 6.04814C83.3761 5.50141 82.9697 5.05812 82.6594 4.71827C82.3491 4.37841 82.1939 4.20848 82.1939 4.20848L73.6163 13.6062H87.3804L89.5969 16.0222H68.0087L82.1939 0.507011Z" fill="white"/>
<path d="M108.344 0.440518C108.359 0.455294 108.521 0.639999 108.831 0.99463C109.156 1.33449 109.57 1.78516 110.073 2.34666C110.59 2.89339 111.166 3.52138 111.801 4.23065C112.452 4.93991 113.109 5.66395 113.774 6.40277C114.454 7.12681 115.111 7.84346 115.747 8.55273C116.397 9.24721 116.973 9.87521 117.476 10.4367C117.978 10.9834 118.384 11.4267 118.695 11.7666C119.005 12.1064 119.16 12.2764 119.16 12.2764C119.337 12.0843 119.611 11.7887 119.98 11.3898C120.35 10.976 120.778 10.5032 121.266 9.97125C121.753 9.43931 122.278 8.87042 122.839 8.26459C123.401 7.64398 123.97 7.01599 124.546 6.38061C125.122 5.74522 125.684 5.132 126.23 4.54095C126.777 3.93512 127.28 3.38101 127.738 2.87861H113.974L111.757 0.462683V0.440518H133.345L119.16 15.9557C118.968 15.7488 118.658 15.4237 118.229 14.9804C117.815 14.5224 117.328 13.983 116.766 13.3624C116.205 12.7418 115.577 12.0621 114.882 11.3233C114.203 10.5697 113.501 9.79394 112.777 8.99602C112.053 8.19809 111.314 7.39278 110.56 6.58009C109.821 5.76739 109.112 4.98424 108.432 4.23065C107.753 3.47706 107.11 2.77518 106.504 2.12502C105.913 1.47486 105.403 0.913361 104.975 0.440518H108.344ZM100.608 0.484847C101.598 1.56352 102.559 2.62003 103.49 3.65437C104.421 4.67394 105.337 5.67873 106.238 6.66874C107.006 7.51099 107.79 8.37541 108.588 9.26199C109.385 10.1338 110.161 10.9834 110.915 11.8109C111.668 12.6236 112.37 13.392 113.02 14.116C113.685 14.8401 114.254 15.4681 114.727 16H111.38C111.306 15.9113 111.04 15.6158 110.582 15.1134C110.139 14.611 109.555 13.9683 108.831 13.1851C108.107 12.402 107.28 11.5006 106.349 10.481C105.433 9.46147 104.458 8.39758 103.423 7.28935C102.404 6.16635 101.362 5.02118 100.298 3.85385C99.2489 2.68652 98.2367 1.56352 97.2615 0.484847H100.608ZM122.467 16L136.652 0.484847C136.652 0.484847 136.851 0.706492 137.25 1.14978C137.664 1.59307 138.196 2.17674 138.846 2.90078C139.511 3.62482 140.265 4.45229 141.107 5.3832C141.964 6.31411 142.836 7.26719 143.722 8.24242C144.609 9.20289 145.473 10.1486 146.316 11.0795C147.173 12.0104 147.934 12.8379 148.599 13.5619C149.264 14.2859 149.796 14.877 150.194 15.3351C150.608 15.7784 150.815 16 150.815 16H147.468L136.652 4.18632L128.074 13.5841H141.838L144.055 16H122.467ZM139.932 0.484847H153.519C154.406 0.484847 155.167 0.669551 155.802 1.03896C156.452 1.39359 156.977 1.85166 157.376 2.41316C157.893 3.09287 158.166 3.84646 158.196 4.67394C158.24 5.48664 158.078 6.24762 157.708 6.95688C157.354 7.66615 156.814 8.26459 156.09 8.75221C155.366 9.22505 154.502 9.46147 153.497 9.46147H151.458C151.502 9.5058 151.613 9.6314 151.79 9.83827C151.982 10.0451 152.211 10.3111 152.477 10.6362C152.743 10.9465 153.039 11.2937 153.364 11.6779C153.704 12.0621 154.044 12.4537 154.384 12.8526L157.088 16H154.095C153.519 15.3646 152.958 14.744 152.411 14.1382C151.879 13.5324 151.354 12.9413 150.837 12.365L146.028 7.04554H154.007C154.539 6.97166 154.997 6.74263 155.381 6.35844C155.765 5.97426 155.957 5.51619 155.957 4.98424C155.957 4.68871 155.891 4.41535 155.758 4.16415C155.64 3.91296 155.47 3.6987 155.248 3.52138C155.041 3.32929 154.805 3.18153 154.539 3.07809C154.273 2.97466 153.999 2.92294 153.719 2.92294H142.149L139.932 0.484847Z" fill="#FFE600"/>
</svg>
