<svg width="328" height="343" viewBox="0 0 328 343" fill="none" xmlns="http://www.w3.org/2000/svg">
    <line x1="0.68557" y1="77.3777" x2="327.248" y2="265.918" stroke="white" stroke-width="2.05234" />
    <line x1="327.248" y1="79.155" x2="0.685497" y2="267.696" stroke="white" stroke-width="2.05234" />
    <path opacity="0.8"
        d="M262.398 114.35V229.303L162.58 286.782L62.7634 229.303V114.35L162.58 56.8716L262.398 114.35Z"
        fill="url(#paint0_linear_446_1737)" />
    <path
        d="M237.93 128.985V214.669L162.507 257.512L87.0833 214.669V128.985L162.507 86.1418L237.93 128.985Z"
        fill="url(#paint1_linear_446_1737)" />
    <path
        d="M162.58 33.6361L282.159 102.732V240.922L162.58 310.018L43.0023 240.922V102.732L162.58 33.6361Z"
        stroke="white" stroke-width="4" />
    <path d="M284.159 271.644C236.679 298.986 162.58 341.658 162.58 341.658L41.0023 271.644"
        stroke="white" stroke-width="2.05234" />
    <path d="M41.0025 72.01C88.4817 44.6679 162.581 1.99614 162.581 1.99614L284.159 72.01"
        stroke="#FFE500" stroke-width="2.05234" />
    <path
        d="M136.538 194.376L119.192 160.301V194.376H112.546V147.884H119.808L137.511 182.899L155.245 147.884H162.475V194.376H155.861V160.301L138.516 194.376H136.538ZM174.471 154.53C174.471 153.622 174.644 152.769 174.99 151.969C175.336 151.148 175.811 150.445 176.416 149.862C177.021 149.256 177.724 148.781 178.524 148.435C179.345 148.068 180.21 147.884 181.117 147.884H206.341C207.249 147.884 208.103 148.068 208.903 148.435C209.724 148.781 210.437 149.256 211.042 149.862C211.648 150.445 212.123 151.148 212.469 151.969C212.815 152.769 212.988 153.622 212.988 154.53V160.528H206.341V154.53H181.117V187.73H206.341V176.447H193.729V169.801H212.988V187.73C212.988 188.638 212.815 189.502 212.469 190.324C212.123 191.123 211.648 191.826 211.042 192.431C210.437 193.036 209.724 193.512 208.903 193.857C208.103 194.203 207.249 194.376 206.341 194.376H181.117C180.21 194.376 179.345 194.203 178.524 193.857C177.724 193.512 177.021 193.036 176.416 192.431C175.811 191.826 175.336 191.123 174.99 190.324C174.644 189.502 174.471 188.638 174.471 187.73V154.53Z"
        fill="white" />
    <defs>
        <linearGradient id="paint0_linear_446_1737" x1="238.5" y1="50" x2="101.5" y2="277.5"
            gradientUnits="userSpaceOnUse">
            <stop stop-color="#FFF48F" />
            <stop offset="1" stop-color="#685E00" />
        </linearGradient>
        <linearGradient id="paint1_linear_446_1737" x1="162.507" y1="131" x2="162.507" y2="456.5"
            gradientUnits="userSpaceOnUse">
            <stop stop-color="#12353E" />
            <stop offset="1" stop-color="#0797BD" />
        </linearGradient>
    </defs>
</svg>